PathFileType        4      (X/Y/Z)      C:\Users\ibrah\OneDrive - KTH\Model Validation - Orthoload\rmr-solver-1.0 - original\rmr-solver-1.0\ExperimentalData\S8R\trc\transformed_MSbfkg1.trc         
DataRate	CameraRate	NumFrames	NumMarkers	Units	OrigDataRate	OrigDataStartFrame	OrigNumFrames
50.0	50.0	4	27	mm	50.0	150	398
Frame#	Time	IJ			PX			C7			T8			SC			AA			TS			AI			PC			ACv			ACd			GH			EM			EL			EM2			EL2			US			RS			US2			RS2			MCP2			MCP5			SCREWAA			SCREWTS			SCREWAI			ACvloc			ACdloc			
		X1	Y1	Z1	X2	Y2	Z2	X3	Y3	Z3	X4	Y4	Z4	X5	Y5	Z5	X6	Y6	Z6	X7	Y7	Z7	X8	Y8	Z8	X9	Y9	Z9	X10	Y10	Z10	X11	Y11	Z11	X12	Y12	Z12	X13	Y13	Z13	X14	Y14	Z14	X15	Y15	Z15	X16	Y16	Z16	X17	Y17	Z17	X18	Y18	Z18	X19	Y19	Z19	X20	Y20	Z20	X21	Y21	Z21	X22	Y22	Z22	X23	Y23	Z23	X24	Y24	Z24	X25	Y25	Z25	X26	Y26	Z26	X27	Y27	Z27	
150	2.98	-9.621985470078302	-2.926696873354887	4.311258910255321	41.18186598136483	-143.1630182117893	9.01161849582448	-138.1888332838471	85.09180101116608	-2.977121811646238	-207.5333345733582	-114.6058792882249	-8.977694784763447	-17.53381001324944	6.270714768567958	27.97747034844657	-126.18073054879	2.569608326755248	191.2097487219294	-184.0077512019819	6.464386285583674	110.4433650677527	-200.3575350420834	-157.5228134934305	89.13380415151076	-61.90034292386784	6.307696198386748	137.343138045067	-104.3204057583697	36.31275161624965	171.9353079948189	-104.3204057583697	36.31275161624965	171.9353079948189	-117.6456570910069	-50.97198280514412	192.4605398835841	-31.48049886819736	-327.8274199610174	210.9844693962654	-11.89452161548057	-305.1922945429639	276.4155161436687													77.53323397754576	-511.6168252607859	298.2129862189511	38.91252912558316	-520.8732554648924	341.1943576600111																						
151	3.0	-10.5249949984927	-2.893648695200797	4.309899311415658	40.5043891753276	-143.0489125749209	8.985358908845877	-139.2362251539561	84.92062985401726	-2.884247478437777	-208.2688497733059	-114.8870915346107	-8.805057411282482	-18.43213282859361	6.293983929663528	27.98138985892527	-126.8321444553438	2.329181116215434	191.332734927626	-184.8743979617051	6.027989101615159	110.7133788889814	-200.8518231207529	-158.0112843190395	89.53750516357641	-62.70148124353159	6.202986046137307	137.2995625492053	-105.1096271227681	36.11744876928874	171.9835376629081	-105.1096271227681	36.11744876928874	171.9835376629081	-118.1372003491185	-51.27452819371366	192.618908146189	-30.28155704351377	-327.6314926555811	210.6737852330039	-10.35617165287252	-304.838049203241	275.938293098521													80.81944584094128	-510.4376659477067	296.9838224382029	42.53036994003403	-520.068101446719	340.1794383445442																						
152	3.02	-11.36745592256699	-2.866314920919855	4.31740797943796	39.85792234370036	-142.9508359587275	8.96368536550385	-140.203442382763	84.77050200224106	-2.801025596553845	-208.9632665752908	-115.1315382994675	-8.679262971477941	-19.27324196510444	6.310568243456068	27.99349400717576	-127.4916247640542	2.085212608096019	191.4267830339926	-185.7088797269946	5.626676173038118	110.928900704842	-201.3582981689439	-158.452005780196	89.83777692927214	-63.48499946872494	6.085448624292147	137.2583621771338	-105.8869093484645	35.91525759790864	172.0216866749307	-105.8869093484645	35.91525759790864	172.0216866749307	-118.6628776796947	-51.56071031383833	192.7724749372165	-29.3729849474394	-327.4838666124876	210.3820392954098	-9.15567545463283	-304.558233715946	275.5000470649303													83.64473207789185	-509.3651449301945	295.8568906434086	45.66096745923912	-519.3382350324456	339.2450777647858																						
153	3.04	-12.14795619757766	-2.845062005792728	4.330850061278389	39.24476673340065	-142.8690283093168	8.943801413063266	-141.089967387068	84.6403834237809	-2.727467104366038	-209.6154968680206	-115.3410038530226	-8.595716708744233	-20.05502587435232	6.320326087282728	28.01099614246463	-128.1467575218205	1.841668438395088	191.4950324007694	-186.5022142357193	5.262379753302092	111.0945042772618	-201.8649569372646	-158.8443591446062	90.04180875296628	-64.23989473042752	5.960565541406265	137.2203122520836	-106.6411263824461	35.71080100393402	172.0516527234198	-106.6411263824461	35.71080100393402	172.0516527234198	-119.2062701144896	-51.82964412275867	192.9227558535618	-28.72339119979555	-327.3834996647179	210.1116263571708	-8.255959852756277	-304.3515156144111	275.1032798248594													86.02714721963257	-508.412023713017	294.8425237445408	48.31988744787719	-518.6933837443994	338.40145527201																						
